<svg xmlns="http://www.w3.org/2000/svg" xmlns:xlink="http://www.w3.org/1999/xlink" viewBox="0 0 501.55 385.05"><defs><style>.cls-1,.cls-12,.cls-13,.cls-15,.cls-16{fill:none;}.cls-2{fill:#511aea;}.cls-3{fill:#230962;}.cls-4{fill:#b2b2b2;}.cls-5{fill:#fff;}.cls-6{fill:#c6c6c6;}.cls-7{fill:#dadada;}.cls-8{clip-path:url(#clip-path);}.cls-9{fill:#9855ff;}.cls-10{fill:#1ac886;}.cls-11{fill:#a7a9ac;}.cls-12,.cls-13{stroke:#511aea;stroke-miterlimit:10;}.cls-12,.cls-13,.cls-15,.cls-16{stroke-linecap:round;}.cls-12{stroke-width:4px;}.cls-13,.cls-15,.cls-16{stroke-width:2px;}.cls-14{fill:#ff3aa3;}.cls-15{stroke:#ff3aa3;}.cls-15,.cls-16{stroke-linejoin:round;}.cls-16{stroke:#00fefc;}</style><clipPath id="clip-path"><path class="cls-1" d="M361,259.3,200.7,238a43.23,43.23,0,0,0-11.19.27l-59.46,9.22c-3.08.57-3.07,1.44,0,1.95l150.18,25a36.57,36.57,0,0,0,11.15-.21l69.63-13C364.1,260.56,364.07,259.71,361,259.3Z"/></clipPath></defs><g id="Layer_2" data-name="Layer 2"><g id="content"><ellipse class="cls-2" cx="251.54" cy="339.93" rx="194.45" ry="45.12"/><path class="cls-3" d="M222.8,289.44s156.36,28.23,163.42,29.81,10.53,2.44,10.53,4.56c0,2.91-4.73,3.12-10.53,4.5l-138,32.74a79.91,79.91,0,0,1-21.35-.07s-180-34.73-182.56-39.07S222.8,289.44,222.8,289.44Z"/><path class="cls-4" d="M442.62,68.14A8,8,0,0,1,450.74,78L415.3,258.13a10.88,10.88,0,0,1-11.92,8.57Z"/><path d="M228.56,78a13.16,13.16,0,0,1,12.27-9.81H440.61A8,8,0,0,1,448.72,78L413.28,258.13a10.88,10.88,0,0,1-11.92,8.57l-199.19-26a9,9,0,0,1-7.76-11.12Z"/><path class="cls-2" d="M406.31,265.86s0,5.72-7.7,8.09c-3,1-12.05,2.83-17.55,3.67l-116.83,21.6a75.11,75.11,0,0,1-19.87-.14L59,267.07s-9-1.37-9-3.24v-5.08l143.93-15.49Z"/><path class="cls-4" d="M193.93,243.26l124.46,16.48,87.92.58v5.54c0,3.05-4.45,6.24-9.94,7.11L265.56,296.73a74.2,74.2,0,0,1-19.86-.06L54,264.58c-2.19-.37-4-1.35-4-2.18v-4.51l21.3.23Z"/><path class="cls-5" d="M51.64,257.26,190,232.89a30.74,30.74,0,0,1,8-.17l206.72,26.89c2.21.29,2.23.9.05,1.36L265.47,290.2a63.35,63.35,0,0,1-19.77.45l-194-32C49.46,258.26,49.45,257.65,51.64,257.26Z"/><path d="M130.05,247.44l59.46-9.22A43.23,43.23,0,0,1,200.7,238L361,259.3c3.1.41,3.13,1.26.06,1.88l-69.63,13a36.57,36.57,0,0,1-11.15.21l-150.18-25C127,248.88,127,248,130.05,247.44Z"/><path class="cls-6" d="M212.37,235.13l1.48-.34L234,237.41l-2.4.39a16.56,16.56,0,0,1-4,.06l-15.23-2C211.32,235.69,211.3,235.37,212.37,235.13Z"/><path class="cls-6" d="M339.68,251.9l2.93-.36,24.07,3.13-3.14.39a18.35,18.35,0,0,1-4,0l-19.87-2.63C338.58,252.26,338.58,252,339.68,251.9Z"/><polygon class="cls-2" points="433.82 84.18 402.61 248.11 205.99 221.02 236.38 84.18 433.82 84.18"/><polygon class="cls-3" points="426.38 68.7 395.18 232.63 196.61 211.28 228.94 68.7 426.38 68.7"/><polygon class="cls-5" points="421.38 58.7 390.18 222.63 191.61 204.28 223.94 58.7 421.38 58.7"/><path class="cls-7" d="M125.26,264l23-4.59a54.39,54.39,0,0,1,16.75-.21l46.49,8.13c4.64.81,4.63,2.08,0,2.84l-25.84,4.24a61.53,61.53,0,0,1-16.82,0l-43.48-7.29C120.67,266.33,120.65,265,125.26,264Z"/><g class="cls-8"><path class="cls-5" d="M125.05,246.67l9.6,1.6-6.25,1,.4.07,6.26-1,11.56,1.93-6.32,1,.42.08,6.32-1,12,2-6.38,1,.43.07,13.1-2.12L176.34,253l-13.2,2.18.45.08,13.2-2.18,10.49,1.7L174,257l.45.08,13.31-2.25,59.38,9.67-13.78,2.63.53.1,13.79-2.64,12.58,2-13.87,2.72.55.09,13.88-2.72,13,2.11-13.95,2.82.57.09,14-2.81,13.41,2.18-14,2.91.59.1,14-2.91,14,2.28.63-.13-28.93-4.7,13.59-2.74,29.06,4.51.63-.13-23.86-3.69,13.59-2.77,23.95,3.54.62-.13-16.56-2.45,13.59-2.8,16.62,2.33.62-.13-12.12-1.7,13.58-2.83,12.73,1.68.62-.13-12.7-1.67,8.32-1.74-.68-.08-8.31,1.73-11.53-1.54,8.29-1.69-.66-.08-8.29,1.68L324,256.35l8.27-1.64-.64-.08-8.27,1.64-10.95-1.46,8.24-1.61-.62-.08-8.24,1.6-10.68-1.42,8.21-1.56-.61-.08-8.21,1.56-10.41-1.39,8.18-1.52-.59-.08-8.19,1.52-10.16-1.36,8.15-1.48-.58-.07-8.15,1.48L268.81,249l8.12-1.44-.57-.08-8.12,1.45-9.68-1.29,8.09-1.41-.56-.07-8.08,1.4-9.45-1.26,8.05-1.37-.54-.07-8,1.37L238.79,245l8-1.34-.53-.07-8,1.34-9-1.2,8-1.31-.51-.07-8,1.31-8.81-1.18,7.92-1.28-.5-.06-7.93,1.28-8.61-1.15,7.88-1.25-.49-.07-7.88,1.25-8.43-1.12,7.84-1.22-.48-.06L201.4,240l-8.24-1.1,7.8-1.19-.47-.06-7.8,1.19-8.13-1.08-.57.08L199.81,240l-12.74,2-15.68-2.2-.58.09,12.5,1.75-12.68,2-12.37-1.82-.57.08,17.22,2.55-12.67,2-17.06-2.64-.57.08L168,247.38l-12.7,2-23.19-3.77-.56.08,9.66,1.58-6,.92-9.61-1.6Zm43.4.77,10,1.55-12.8,2.06-9.89-1.6Zm36.17-2.87L215,246l-12.93,2.13-10.33-1.52Zm-13.3,2-10-1.48,12.76-2,10.14,1.43Zm24.17-.47,10.71,1.5-13,2.19-10.63-1.56Zm11.18,1.57,11,1.55-13.1,2.25-10.93-1.61Zm11.49,1.62,11.33,1.59-13.18,2.32-11.25-1.65ZM250,251l11.65,1.64L248.38,255l-11.58-1.7Zm12.16,1.71,12,1.68-13.33,2.48-11.93-1.76Zm12.53,1.76L287,256.16l-13.41,2.55-12.28-1.81Zm12.9,1.81L300.32,258l-13.47,2.63-12.67-1.86Zm13.3,1.87L314,260l-13.53,2.71-13.06-1.92Zm-8.17,3.63-13.52,2.68-12.79-2,13.45-2.6Zm-26.85.61-12.4-1.92,13.38-2.51,12.46,1.84Zm-12.93-2-12-1.86,13.3-2.44,12.09,1.79ZM240.4,258.4l-11.66-1.81L242,254.23,253.69,256Zm-12.16-1.88-11.32-1.76,13.13-2.29,11.4,1.69Zm-11.81-1.83-11-1.7,13-2.23,11.08,1.64ZM205,252.91l-10.68-1.65,13-2.16L218,250.69Zm-11.14-1.72-10.38-1.61,12.86-2.09L206.78,249ZM183,249.51,172.91,248l12.77-2,10.18,1.5Zm-7.66-5.12,9.9,1.46-12.76,2-9.82-1.52ZM193.6,243l-12.76,2-9.79-1.45,12.68-2Zm16.68-1.66-12.83,2L187.5,242l12.74-2ZM221,242.79l-12.9,2.09-10.23-1.43,12.83-2Zm11,1.48-13,2.15L208.57,245l12.91-2.1Zm11.34,1.52L230.34,248l-10.8-1.51,13-2.16Zm11.66,1.56-13.14,2.28-11.11-1.56,13.07-2.22Zm12,1.6-13.21,2.35-11.43-1.6,13.14-2.29Zm12.34,1.65L266.11,253l-11.76-1.65L267.57,249Zm12.7,1.7-13.36,2.49-12.11-1.7,13.29-2.42ZM305.17,254l-13.42,2.58-12.47-1.75,13.35-2.5Zm13.46,1.8-13.47,2.66-12.86-1.81,13.42-2.57Zm13.88,1.86L319,260.44l-13.25-1.86,13.47-2.66Zm-12.94,2.82,13.53-2.74,13.71,1.83-13.57,2.83Zm-18.52,2.23L314.58,260l13.54,1.9-13.59,2.81Zm-21.29,1.74,13.52-2.68,13.26,2L293,266.54Zm-19.18,2,13.51-2.65,13,2-13.58,2.74Zm-13.12-2.13,13.43-2.57,12.64,2L260,266.39Zm-12.7-2.07,13.35-2.48,12.24,1.9-13.42,2.56Zm-12.32-2,13.26-2.4,11.88,1.84-13.34,2.48Zm-11.95-1.94L223.66,256l11.53,1.79-13.26,2.4Zm-11.6-1.88L212,254.19l11.19,1.74L210,258.26Zm-11.25-1.83,13-2.2,10.87,1.69-13.08,2.26Zm-10.94-1.78,12.9-2.13,10.56,1.64-13,2.19Zm-10.62-1.73,12.8-2.06,10.27,1.59-12.9,2.13Zm-18.46-.87,6.07-.95,12,1.95-6.14,1Zm-12-2,6-.93,11.62,1.9-6.07,1Z"/></g><path class="cls-3" d="M381.81,154.73l8.68-45.56a1,1,0,0,0-1-1.19l-64.64-1.86a1,1,0,0,0-1,.78l-9.53,42.53a1,1,0,0,0,.9,1.22l65.51,4.89A1,1,0,0,0,381.81,154.73Z"/><path class="cls-3" d="M392.38,99.22l9.77-51.34a1,1,0,0,0-1-1.18H205.74a1,1,0,0,0-1,.78L194.62,93.17a1,1,0,0,0,.95,1.22L391.37,100A1,1,0,0,0,392.38,99.22Z"/><path class="cls-3" d="M224.47,144.43l8.91-39.76a1,1,0,0,0-.94-1.22l-39-1.12a1,1,0,0,0-1,.78l-8.61,38.76a1,1,0,0,0,.92,1.22l38.72,2.12A1,1,0,0,0,224.47,144.43Z"/><path class="cls-3" d="M221.33,153.11,182.64,151a1,1,0,0,0-1,.79l-8.75,39.4a1,1,0,0,0,.89,1.21L212,195.92a1,1,0,0,0,1.07-.78l9.15-40.81A1,1,0,0,0,221.33,153.11Z"/><path class="cls-9" d="M376.81,143.73l8.68-45.56a1,1,0,0,0-1-1.19l-64.64-1.86a1,1,0,0,0-1,.78l-9.53,42.53a1,1,0,0,0,.9,1.22l65.51,4.89A1,1,0,0,0,376.81,143.73Z"/><path class="cls-10" d="M387.38,88.22l9.77-51.34a1,1,0,0,0-1-1.18H200.74a1,1,0,0,0-1,.78L189.62,82.17a1,1,0,0,0,.95,1.22L386.37,89A1,1,0,0,0,387.38,88.22Z"/><path class="cls-11" d="M219.47,133.43l8.91-39.76a1,1,0,0,0-.94-1.22l-39-1.12a1,1,0,0,0-1,.78l-8.61,38.76a1,1,0,0,0,.92,1.22l38.72,2.12A1,1,0,0,0,219.47,133.43Z"/><path class="cls-10" d="M216.33,142.11,177.64,140a1,1,0,0,0-1,.79l-8.75,39.4a1,1,0,0,0,.89,1.21L207,184.92a1,1,0,0,0,1.07-.78l9.15-40.81A1,1,0,0,0,216.33,142.11Z"/><line class="cls-12" x1="280" y1="110.46" x2="244.33" y2="109.14"/><line class="cls-13" x1="305.69" y1="124.1" x2="241.76" y2="120.62"/><line class="cls-13" x1="286.71" y1="129.49" x2="240.34" y2="126.86"/><line class="cls-13" x1="301.27" y1="143.24" x2="237.5" y2="139.33"/><line class="cls-13" x1="265.05" y1="147.41" x2="236.09" y2="145.57"/><line class="cls-13" x1="298.33" y1="156" x2="234.67" y2="151.81"/><line class="cls-13" x1="281.95" y1="161.36" x2="233.25" y2="158.04"/><line class="cls-13" x1="295.38" y1="168.75" x2="231.83" y2="164.28"/><line class="cls-13" x1="287.97" y1="174.7" x2="230.42" y2="170.51"/><line class="cls-13" x1="245.54" y1="177.99" x2="229" y2="176.75"/><line class="cls-13" x1="280.05" y1="187.04" x2="227.58" y2="182.99"/><line class="cls-13" x1="289.49" y1="194.27" x2="226.16" y2="189.22"/><line class="cls-12" x1="358.41" y1="165.46" x2="317.17" y2="162.16"/><line class="cls-13" x1="361.88" y1="175.59" x2="314.58" y2="171.66"/><line class="cls-13" x1="367.45" y1="182.45" x2="313.1" y2="177.85"/><line class="cls-13" x1="360.13" y1="188.21" x2="311.61" y2="184.04"/><line class="cls-13" x1="364.66" y1="195" x2="310.13" y2="190.22"/><line class="cls-13" x1="356.88" y1="200.71" x2="308.65" y2="196.41"/><path class="cls-14" d="M406.69,37.43a6.43,6.43,0,0,0,3.89-3.89.65.65,0,0,1,1.22,0,6.43,6.43,0,0,0,3.89,3.89.65.65,0,0,1,0,1.21,6.43,6.43,0,0,0-3.89,3.89.65.65,0,0,1-1.22,0,6.43,6.43,0,0,0-3.89-3.89A.65.65,0,0,1,406.69,37.43Z"/><path class="cls-14" d="M27.43,301.38a6.41,6.41,0,0,0,3.89-3.89.66.66,0,0,1,1.22,0,6.41,6.41,0,0,0,3.89,3.89.66.66,0,0,1,0,1.22,6.41,6.41,0,0,0-3.89,3.89.65.65,0,0,1-1.22,0,6.41,6.41,0,0,0-3.89-3.89A.65.65,0,0,1,27.43,301.38Z"/><path class="cls-14" d="M153.16,55.77a6.43,6.43,0,0,0,3.89-3.89.65.65,0,0,1,1.21,0,6.43,6.43,0,0,0,3.89,3.89.65.65,0,0,1,0,1.22,6.43,6.43,0,0,0-3.89,3.89.65.65,0,0,1-1.21,0A6.43,6.43,0,0,0,153.16,57,.65.65,0,0,1,153.16,55.77Z"/><path class="cls-14" d="M66,290.65a2.17,2.17,0,1,0-2.17,2.17A2.17,2.17,0,0,0,66,290.65Z"/><path class="cls-14" d="M21,250a4.7,4.7,0,1,0-4.7,4.7A4.7,4.7,0,0,0,21,250Z"/><path class="cls-14" d="M492.92,55.92a3,3,0,1,1-3.05-3A3,3,0,0,1,492.92,55.92Z"/><path class="cls-14" d="M444.93,4.05a3.05,3.05,0,1,1-3.05-3A3,3,0,0,1,444.93,4.05Z"/><path class="cls-15" d="M147,110.18a6.71,6.71,0,1,0-6.71,6.71A6.7,6.7,0,0,0,147,110.18Z"/><line class="cls-16" x1="479.19" y1="32.45" x2="500.55" y2="32.45"/><line class="cls-16" x1="372.07" y1="1" x2="355.48" y2="1"/><line class="cls-16" x1="127.68" y1="81.59" x2="112.21" y2="81.59"/><line class="cls-16" x1="15.21" y1="280.72" x2="1" y2="280.72"/><line class="cls-16" x1="108.63" y1="304.89" x2="93.2" y2="304.89"/><line class="cls-16" x1="59.6" y1="228.63" x2="54.57" y2="228.63"/><line class="cls-16" x1="473.55" y1="89.46" x2="468.52" y2="89.46"/></g></g></svg>